<svg xmlns="http://www.w3.org/2000/svg" width="202.724" height="62.001" viewBox="0 0 202.724 62.001">
  <g id="Group_6245" data-name="Group 6245" transform="translate(-213.107 -122.052)">
    <path id="Path_3737" data-name="Path 3737" d="M249.626,140.12v27.405H221.663a8.574,8.574,0,0,1-8.556-8.556V145.453h28.4V140.12a.423.423,0,0,0-.433-.433H213.107v-8.123H241.07A8.573,8.573,0,0,1,249.626,140.12ZM241.5,153.637H221.229v5.333a.424.424,0,0,0,.435.433H241.5Z" transform="translate(0 2.268)" fill="#4a67ce"/>
    <path id="Path_3738" data-name="Path 3738" d="M254.017,141.955v19.283a.423.423,0,0,0,.433.433h13.578v8.123H254.45a8.534,8.534,0,0,1-8.556-8.556V122.052h8.123v11.78h14.012v8.123Z" transform="translate(7.818)" fill="#4a67ce"/>
    <path id="Path_3739" data-name="Path 3739" d="M303.237,140.12v27.405H275.274a8.573,8.573,0,0,1-8.555-8.556V145.453h28.4V140.12a.422.422,0,0,0-.432-.433H266.719v-8.123h27.963A8.572,8.572,0,0,1,303.237,140.12Zm-8.123,13.516H274.841v5.333a.423.423,0,0,0,.433.433h19.84Z" transform="translate(12.783 2.268)" fill="#4a67ce"/>
    <path id="Path_3740" data-name="Path 3740" d="M307.291,122.052v39.186c0,.248.123.433.372.433h7.255v8.123h-7.255a8.573,8.573,0,0,1-8.556-8.556V122.052Z" transform="translate(20.506)" fill="#4a67ce"/>
    <path id="Path_3741" data-name="Path 3741" d="M342.8,181.785h-22.01V173.6H342.8a.357.357,0,0,0,.373-.372v-5.7h-19.84a8.574,8.574,0,0,1-8.558-8.556V140.12a8.574,8.574,0,0,1,8.558-8.556H342.8a8.521,8.521,0,0,1,8.494,8.556v33.11A8.52,8.52,0,0,1,342.8,181.785Zm0-22.382a.414.414,0,0,0,.373-.433V140.12a.414.414,0,0,0-.373-.433H323.332a.423.423,0,0,0-.435.433v18.849a.423.423,0,0,0,.435.433Z" transform="translate(24.242 2.268)" fill="#4a67ce"/>
    <path id="Path_3742" data-name="Path 3742" d="M375.275,131.564a8.573,8.573,0,0,1,8.556,8.556v18.849a8.573,8.573,0,0,1-8.556,8.556H355.868a8.573,8.573,0,0,1-8.556-8.556V140.12a8.573,8.573,0,0,1,8.556-8.556Zm-19.406,8.123a.424.424,0,0,0-.435.433v18.849a.424.424,0,0,0,.435.433h19.406a.423.423,0,0,0,.433-.433V140.12a.423.423,0,0,0-.433-.433Z" transform="translate(32 2.268)" fill="#4a67ce"/>
  </g>
</svg>
