<svg xmlns="http://www.w3.org/2000/svg" width="21.271" height="21.223" viewBox="0 0 21.271 21.223">
  <g id="Group_31" data-name="Group 31" transform="translate(-135.078 -225.381)">
    <path id="Path_52" data-name="Path 52" d="M135.429,232.426h4.414V246.6h-4.414Zm2.207-7.045a2.555,2.555,0,1,1-2.558,2.553,2.555,2.555,0,0,1,2.558-2.553" transform="translate(0 0)" fill="#fff"/>
    <path id="Path_53" data-name="Path 53" d="M143.468,233.191h4.227v1.939h.057a4.634,4.634,0,0,1,4.173-2.29c4.461,0,5.284,2.935,5.284,6.752v7.776h-4.4v-6.892c0-1.646-.032-3.76-2.29-3.76-2.294,0-2.644,1.791-2.644,3.64v7.013h-4.4Z" transform="translate(-0.86 -0.765)" fill="#fff"/>
  </g>
</svg>
