<svg xmlns="http://www.w3.org/2000/svg" width="20.963" height="17.003" viewBox="0 0 20.963 17.003">
  <path id="Path_32" data-name="Path 32" d="M44.638,19A12.12,12.12,0,0,0,56.867,6.775V6.193a9.467,9.467,0,0,0,2.1-2.213,9.668,9.668,0,0,1-2.446.7,4.531,4.531,0,0,0,1.863-2.329A10.682,10.682,0,0,1,55.7,3.4,4.159,4.159,0,0,0,52.558,2a4.376,4.376,0,0,0-4.309,4.309,2.271,2.271,0,0,0,.116.932A12.041,12.041,0,0,1,39.514,2.7a4.46,4.46,0,0,0-.582,2.213A4.627,4.627,0,0,0,40.8,8.522a3.926,3.926,0,0,1-1.98-.582h0a4.256,4.256,0,0,0,3.494,4.193,3.59,3.59,0,0,1-1.165.116,1.982,1.982,0,0,1-.815-.116,4.412,4.412,0,0,0,4.076,3.028,8.793,8.793,0,0,1-5.357,1.863A3.224,3.224,0,0,1,38,16.907,10.993,10.993,0,0,0,44.638,19" transform="translate(-38 -2)" fill="#fff" fill-rule="evenodd"/>
</svg>
