<svg xmlns="http://www.w3.org/2000/svg" width="23.58" height="17.096" viewBox="0 0 23.58 17.096">
  <g id="Group_32" data-name="Group 32" transform="translate(-3040.521 -942.91)">
    <path id="Path_54" data-name="Path 54" d="M3063.96,947.58a9.768,9.768,0,0,0-.412-2.273,2.868,2.868,0,0,0-2.45-2.091c-.745-.106-1.5-.146-2.253-.177-1.392-.057-2.786-.107-4.179-.121-1.741-.017-3.482-.007-5.223.018-1.344.019-2.687.069-4.03.123a11.209,11.209,0,0,0-2.218.216,2.77,2.77,0,0,0-1.819,1.343,4.915,4.915,0,0,0-.59,1.86c-.092.746-.169,1.5-.2,2.248a54.278,54.278,0,0,0,.054,6.331,9.717,9.717,0,0,0,.454,2.589,2.831,2.831,0,0,0,1.436,1.687,5.158,5.158,0,0,0,1.879.423c.84.072,1.683.1,2.526.125,1.795.05,3.59.085,5.385.127,0-.016,0-.031,0-.047.893,0,1.786.019,2.678,0q2.439-.063,4.877-.171a8.777,8.777,0,0,0,1.519-.178,2.741,2.741,0,0,0,1.987-1.613,5.24,5.24,0,0,0,.464-1.649c.1-1.042.2-2.087.228-3.133A50.3,50.3,0,0,0,3063.96,947.58Zm-7.051,4.116-7.806,4.174a.551.551,0,0,1-.8-.5v-8.378a.55.55,0,0,1,.806-.5l7.806,4.2A.571.571,0,0,1,3056.909,951.7Z" fill="#fff"/>
  </g>
</svg>
